<?xml version="1.0" encoding="utf-8"?>
<!-- Svg Vector Icons : http://www.onlinewebfonts.com/icon -->
<!DOCTYPE svg PUBLIC "-//W3C//DTD SVG 1.1//EN" "http://www.w3.org/Graphics/SVG/1.1/DTD/svg11.dtd">
<svg version="1.1" xmlns="http://www.w3.org/2000/svg" xmlns:xlink="http://www.w3.org/1999/xlink" x="0px" y="0px" viewBox="0 0 1000 1000" enable-background="new 0 0 1000 1000" xml:space="preserve">
<metadata> Svg Vector Icons : http://www.onlinewebfonts.com/icon </metadata>
<g><g transform="translate(0.000000,512.000000) scale(0.100000,-0.100000)"><path d="M4734.9,4989.1c-155.1-34.5-302.6-101.5-461.5-214.5C4122,4669.3,594.6,1157.1,410.7,929.2C177.1,642,83.3,373.9,102.4,48.3c26.8-434.7,285.3-835,666.4-1022.6c157-76.6,365.8-134.1,490.2-136h61.3l5.8-1344.3c5.7-1332.8,5.7-1348.2,47.9-1470.7c63.2-183.8,172.4-356.2,312.1-497.9c145.5-143.6,283.4-229.8,482.6-302.6l139.8-51.7h2690.6h2690.6l139.8,51.7c201.1,72.8,337.1,158.9,482.6,302.6c143.6,145.5,229.8,281.5,302.6,482.6l51.7,139.8l5.7,1346.2l5.7,1344.3h61.3c122.6,1.9,333.2,59.4,482.6,132.1C9817.3-683.2,10070.1,52.2,9779,642c-36.4,74.7-122.5,203-191.5,287.3c-183.8,227.9-3711.3,3740-3862.6,3845.3C5416.6,4991,5081.5,5063.7,4734.9,4989.1z M5257.6,1312.2c455.8-95.8,842.6-482.6,938.4-938.4c181.9-869.4-586-1637.3-1455.4-1455.4c-348.5,72.8-674.1,325.5-831.1,641.5c-180,367.7-180,743,0,1110.7C4150.8,1159,4711.9,1427.1,5257.6,1312.2z M5257.6-2395.2c120.6-57.5,237.5-172.4,296.8-294.9c67-139.8,67-381.1,0-517.1c-59.4-122.6-174.3-237.5-296.8-296.8c-136-67-377.3-67-517.1,0c-497.9,241.3-455.8,947.9,67,1137.5C4928.3-2322.5,5133.2-2335.9,5257.6-2395.2z"/></g></g>
</svg>